%TF.GenerationSoftware,KiCad,Pcbnew,(5.1.9)-1*%
%TF.CreationDate,2021-08-01T10:14:43-03:00*%
%TF.ProjectId,BTIBR-PCB,42544942-522d-4504-9342-2e6b69636164,rev?*%
%TF.SameCoordinates,Original*%
%TF.FileFunction,Soldermask,Top*%
%TF.FilePolarity,Negative*%
%FSLAX46Y46*%
G04 Gerber Fmt 4.6, Leading zero omitted, Abs format (unit mm)*
G04 Created by KiCad (PCBNEW (5.1.9)-1) date 2021-08-01 10:14:43*
%MOMM*%
%LPD*%
G01*
G04 APERTURE LIST*
%ADD10C,1.600000*%
%ADD11R,1.600000X1.600000*%
%ADD12O,1.700000X1.700000*%
%ADD13R,1.700000X1.700000*%
%ADD14R,5.000000X3.000000*%
%ADD15O,1.600000X1.600000*%
%ADD16R,3.000000X5.000000*%
G04 APERTURE END LIST*
D10*
%TO.C,C1*%
X154500000Y-59500000D03*
D11*
X154500000Y-57000000D03*
%TD*%
D10*
%TO.C,C2*%
X154500000Y-127000000D03*
D11*
X154500000Y-124500000D03*
%TD*%
%TO.C,C3*%
X154500000Y-79500000D03*
D10*
X154500000Y-82000000D03*
%TD*%
D11*
%TO.C,C4*%
X154500000Y-102000000D03*
D10*
X154500000Y-104500000D03*
%TD*%
D12*
%TO.C,J3*%
X151420000Y-66000000D03*
X153960000Y-66000000D03*
D13*
X156500000Y-66000000D03*
%TD*%
D12*
%TO.C,J4*%
X151420000Y-88500000D03*
X153960000Y-88500000D03*
D13*
X156500000Y-88500000D03*
%TD*%
D14*
%TO.C,J6*%
X193000000Y-77000000D03*
G36*
G01*
X194750000Y-73500000D02*
X191250000Y-73500000D01*
G75*
G02*
X190500000Y-72750000I0J750000D01*
G01*
X190500000Y-71250000D01*
G75*
G02*
X191250000Y-70500000I750000J0D01*
G01*
X194750000Y-70500000D01*
G75*
G02*
X195500000Y-71250000I0J-750000D01*
G01*
X195500000Y-72750000D01*
G75*
G02*
X194750000Y-73500000I-750000J0D01*
G01*
G37*
G36*
G01*
X194750000Y-68500000D02*
X191250000Y-68500000D01*
G75*
G02*
X190500000Y-67750000I0J750000D01*
G01*
X190500000Y-66250000D01*
G75*
G02*
X191250000Y-65500000I750000J0D01*
G01*
X194750000Y-65500000D01*
G75*
G02*
X195500000Y-66250000I0J-750000D01*
G01*
X195500000Y-67750000D01*
G75*
G02*
X194750000Y-68500000I-750000J0D01*
G01*
G37*
G36*
G01*
X194750000Y-63500000D02*
X191250000Y-63500000D01*
G75*
G02*
X190500000Y-62750000I0J750000D01*
G01*
X190500000Y-61250000D01*
G75*
G02*
X191250000Y-60500000I750000J0D01*
G01*
X194750000Y-60500000D01*
G75*
G02*
X195500000Y-61250000I0J-750000D01*
G01*
X195500000Y-62750000D01*
G75*
G02*
X194750000Y-63500000I-750000J0D01*
G01*
G37*
%TD*%
%TO.C,J7*%
G36*
G01*
X194750000Y-83500000D02*
X191250000Y-83500000D01*
G75*
G02*
X190500000Y-82750000I0J750000D01*
G01*
X190500000Y-81250000D01*
G75*
G02*
X191250000Y-80500000I750000J0D01*
G01*
X194750000Y-80500000D01*
G75*
G02*
X195500000Y-81250000I0J-750000D01*
G01*
X195500000Y-82750000D01*
G75*
G02*
X194750000Y-83500000I-750000J0D01*
G01*
G37*
G36*
G01*
X194750000Y-88500000D02*
X191250000Y-88500000D01*
G75*
G02*
X190500000Y-87750000I0J750000D01*
G01*
X190500000Y-86250000D01*
G75*
G02*
X191250000Y-85500000I750000J0D01*
G01*
X194750000Y-85500000D01*
G75*
G02*
X195500000Y-86250000I0J-750000D01*
G01*
X195500000Y-87750000D01*
G75*
G02*
X194750000Y-88500000I-750000J0D01*
G01*
G37*
G36*
G01*
X194750000Y-93500000D02*
X191250000Y-93500000D01*
G75*
G02*
X190500000Y-92750000I0J750000D01*
G01*
X190500000Y-91250000D01*
G75*
G02*
X191250000Y-90500000I750000J0D01*
G01*
X194750000Y-90500000D01*
G75*
G02*
X195500000Y-91250000I0J-750000D01*
G01*
X195500000Y-92750000D01*
G75*
G02*
X194750000Y-93500000I-750000J0D01*
G01*
G37*
X193000000Y-97000000D03*
%TD*%
D13*
%TO.C,J8*%
X156500000Y-69000000D03*
D12*
X153960000Y-69000000D03*
X151420000Y-69000000D03*
%TD*%
D13*
%TO.C,J9*%
X156500000Y-91500000D03*
D12*
X153960000Y-91500000D03*
X151420000Y-91500000D03*
%TD*%
%TO.C,J10*%
X151420000Y-72000000D03*
X153960000Y-72000000D03*
D13*
X156500000Y-72000000D03*
%TD*%
D12*
%TO.C,J11*%
X151420000Y-94500000D03*
X153960000Y-94500000D03*
D13*
X156500000Y-94500000D03*
%TD*%
%TO.C,J12*%
G36*
G01*
X103250000Y-71000000D02*
X106750000Y-71000000D01*
G75*
G02*
X107500000Y-71750000I0J-750000D01*
G01*
X107500000Y-73250000D01*
G75*
G02*
X106750000Y-74000000I-750000J0D01*
G01*
X103250000Y-74000000D01*
G75*
G02*
X102500000Y-73250000I0J750000D01*
G01*
X102500000Y-71750000D01*
G75*
G02*
X103250000Y-71000000I750000J0D01*
G01*
G37*
G36*
G01*
X103250000Y-66000000D02*
X106750000Y-66000000D01*
G75*
G02*
X107500000Y-66750000I0J-750000D01*
G01*
X107500000Y-68250000D01*
G75*
G02*
X106750000Y-69000000I-750000J0D01*
G01*
X103250000Y-69000000D01*
G75*
G02*
X102500000Y-68250000I0J750000D01*
G01*
X102500000Y-66750000D01*
G75*
G02*
X103250000Y-66000000I750000J0D01*
G01*
G37*
D14*
X105000000Y-62500000D03*
%TD*%
%TO.C,J13*%
G36*
G01*
X103250000Y-86000000D02*
X106750000Y-86000000D01*
G75*
G02*
X107500000Y-86750000I0J-750000D01*
G01*
X107500000Y-88250000D01*
G75*
G02*
X106750000Y-89000000I-750000J0D01*
G01*
X103250000Y-89000000D01*
G75*
G02*
X102500000Y-88250000I0J750000D01*
G01*
X102500000Y-86750000D01*
G75*
G02*
X103250000Y-86000000I750000J0D01*
G01*
G37*
G36*
G01*
X103250000Y-81000000D02*
X106750000Y-81000000D01*
G75*
G02*
X107500000Y-81750000I0J-750000D01*
G01*
X107500000Y-83250000D01*
G75*
G02*
X106750000Y-84000000I-750000J0D01*
G01*
X103250000Y-84000000D01*
G75*
G02*
X102500000Y-83250000I0J750000D01*
G01*
X102500000Y-81750000D01*
G75*
G02*
X103250000Y-81000000I750000J0D01*
G01*
G37*
X105000000Y-77500000D03*
%TD*%
D13*
%TO.C,J14*%
X156500000Y-111000000D03*
D12*
X153960000Y-111000000D03*
X151420000Y-111000000D03*
%TD*%
D13*
%TO.C,J15*%
X156500000Y-133500000D03*
D12*
X153960000Y-133500000D03*
X151420000Y-133500000D03*
%TD*%
D14*
%TO.C,J16*%
X193000000Y-117000000D03*
G36*
G01*
X194750000Y-113500000D02*
X191250000Y-113500000D01*
G75*
G02*
X190500000Y-112750000I0J750000D01*
G01*
X190500000Y-111250000D01*
G75*
G02*
X191250000Y-110500000I750000J0D01*
G01*
X194750000Y-110500000D01*
G75*
G02*
X195500000Y-111250000I0J-750000D01*
G01*
X195500000Y-112750000D01*
G75*
G02*
X194750000Y-113500000I-750000J0D01*
G01*
G37*
G36*
G01*
X194750000Y-108500000D02*
X191250000Y-108500000D01*
G75*
G02*
X190500000Y-107750000I0J750000D01*
G01*
X190500000Y-106250000D01*
G75*
G02*
X191250000Y-105500000I750000J0D01*
G01*
X194750000Y-105500000D01*
G75*
G02*
X195500000Y-106250000I0J-750000D01*
G01*
X195500000Y-107750000D01*
G75*
G02*
X194750000Y-108500000I-750000J0D01*
G01*
G37*
G36*
G01*
X194750000Y-103500000D02*
X191250000Y-103500000D01*
G75*
G02*
X190500000Y-102750000I0J750000D01*
G01*
X190500000Y-101250000D01*
G75*
G02*
X191250000Y-100500000I750000J0D01*
G01*
X194750000Y-100500000D01*
G75*
G02*
X195500000Y-101250000I0J-750000D01*
G01*
X195500000Y-102750000D01*
G75*
G02*
X194750000Y-103500000I-750000J0D01*
G01*
G37*
%TD*%
%TO.C,J17*%
G36*
G01*
X194750000Y-123500000D02*
X191250000Y-123500000D01*
G75*
G02*
X190500000Y-122750000I0J750000D01*
G01*
X190500000Y-121250000D01*
G75*
G02*
X191250000Y-120500000I750000J0D01*
G01*
X194750000Y-120500000D01*
G75*
G02*
X195500000Y-121250000I0J-750000D01*
G01*
X195500000Y-122750000D01*
G75*
G02*
X194750000Y-123500000I-750000J0D01*
G01*
G37*
G36*
G01*
X194750000Y-128500000D02*
X191250000Y-128500000D01*
G75*
G02*
X190500000Y-127750000I0J750000D01*
G01*
X190500000Y-126250000D01*
G75*
G02*
X191250000Y-125500000I750000J0D01*
G01*
X194750000Y-125500000D01*
G75*
G02*
X195500000Y-126250000I0J-750000D01*
G01*
X195500000Y-127750000D01*
G75*
G02*
X194750000Y-128500000I-750000J0D01*
G01*
G37*
G36*
G01*
X194750000Y-133500000D02*
X191250000Y-133500000D01*
G75*
G02*
X190500000Y-132750000I0J750000D01*
G01*
X190500000Y-131250000D01*
G75*
G02*
X191250000Y-130500000I750000J0D01*
G01*
X194750000Y-130500000D01*
G75*
G02*
X195500000Y-131250000I0J-750000D01*
G01*
X195500000Y-132750000D01*
G75*
G02*
X194750000Y-133500000I-750000J0D01*
G01*
G37*
X193000000Y-137000000D03*
%TD*%
D12*
%TO.C,J18*%
X151420000Y-114000000D03*
X153960000Y-114000000D03*
D13*
X156500000Y-114000000D03*
%TD*%
D12*
%TO.C,J19*%
X151420000Y-136500000D03*
X153960000Y-136500000D03*
D13*
X156500000Y-136500000D03*
%TD*%
%TO.C,J20*%
X156500000Y-117000000D03*
D12*
X153960000Y-117000000D03*
X151420000Y-117000000D03*
%TD*%
D13*
%TO.C,J21*%
X156500000Y-139500000D03*
D12*
X153960000Y-139500000D03*
X151420000Y-139500000D03*
%TD*%
D14*
%TO.C,J22*%
X105000000Y-92500000D03*
G36*
G01*
X103250000Y-96000000D02*
X106750000Y-96000000D01*
G75*
G02*
X107500000Y-96750000I0J-750000D01*
G01*
X107500000Y-98250000D01*
G75*
G02*
X106750000Y-99000000I-750000J0D01*
G01*
X103250000Y-99000000D01*
G75*
G02*
X102500000Y-98250000I0J750000D01*
G01*
X102500000Y-96750000D01*
G75*
G02*
X103250000Y-96000000I750000J0D01*
G01*
G37*
G36*
G01*
X103250000Y-101000000D02*
X106750000Y-101000000D01*
G75*
G02*
X107500000Y-101750000I0J-750000D01*
G01*
X107500000Y-103250000D01*
G75*
G02*
X106750000Y-104000000I-750000J0D01*
G01*
X103250000Y-104000000D01*
G75*
G02*
X102500000Y-103250000I0J750000D01*
G01*
X102500000Y-101750000D01*
G75*
G02*
X103250000Y-101000000I750000J0D01*
G01*
G37*
%TD*%
%TO.C,J23*%
G36*
G01*
X103250000Y-116000000D02*
X106750000Y-116000000D01*
G75*
G02*
X107500000Y-116750000I0J-750000D01*
G01*
X107500000Y-118250000D01*
G75*
G02*
X106750000Y-119000000I-750000J0D01*
G01*
X103250000Y-119000000D01*
G75*
G02*
X102500000Y-118250000I0J750000D01*
G01*
X102500000Y-116750000D01*
G75*
G02*
X103250000Y-116000000I750000J0D01*
G01*
G37*
G36*
G01*
X103250000Y-111000000D02*
X106750000Y-111000000D01*
G75*
G02*
X107500000Y-111750000I0J-750000D01*
G01*
X107500000Y-113250000D01*
G75*
G02*
X106750000Y-114000000I-750000J0D01*
G01*
X103250000Y-114000000D01*
G75*
G02*
X102500000Y-113250000I0J750000D01*
G01*
X102500000Y-111750000D01*
G75*
G02*
X103250000Y-111000000I750000J0D01*
G01*
G37*
X105000000Y-107500000D03*
%TD*%
D11*
%TO.C,U1*%
X131040000Y-117500000D03*
D15*
X128500000Y-125120000D03*
X128500000Y-117500000D03*
X131040000Y-125120000D03*
%TD*%
%TO.C,U2*%
X136040000Y-135620000D03*
X133500000Y-128000000D03*
X133500000Y-135620000D03*
D11*
X136040000Y-128000000D03*
%TD*%
D15*
%TO.C,U3*%
X173300000Y-74500000D03*
X186000000Y-56720000D03*
X173300000Y-71960000D03*
X186000000Y-59260000D03*
X173300000Y-69420000D03*
X186000000Y-61800000D03*
X173300000Y-66880000D03*
X186000000Y-64340000D03*
X173300000Y-64340000D03*
X186000000Y-66880000D03*
X173300000Y-61800000D03*
X186000000Y-69420000D03*
X173300000Y-59260000D03*
X186000000Y-71960000D03*
X173300000Y-56720000D03*
D11*
X186000000Y-74500000D03*
%TD*%
%TO.C,U4*%
X186000000Y-97000000D03*
D15*
X173300000Y-79220000D03*
X186000000Y-94460000D03*
X173300000Y-81760000D03*
X186000000Y-91920000D03*
X173300000Y-84300000D03*
X186000000Y-89380000D03*
X173300000Y-86840000D03*
X186000000Y-86840000D03*
X173300000Y-89380000D03*
X186000000Y-84300000D03*
X173300000Y-91920000D03*
X186000000Y-81760000D03*
X173300000Y-94460000D03*
X186000000Y-79220000D03*
X173300000Y-97000000D03*
%TD*%
%TO.C,U5*%
X141000000Y-125120000D03*
X138460000Y-117500000D03*
X138460000Y-125120000D03*
D11*
X141000000Y-117500000D03*
%TD*%
%TO.C,U6*%
X145000000Y-128000000D03*
D15*
X142460000Y-135620000D03*
X142460000Y-128000000D03*
X145000000Y-135620000D03*
%TD*%
D11*
%TO.C,U7*%
X161500000Y-57500000D03*
D15*
X169120000Y-60040000D03*
X161500000Y-60040000D03*
X169120000Y-57500000D03*
%TD*%
D11*
%TO.C,U8*%
X161500000Y-80000000D03*
D15*
X169120000Y-82540000D03*
X161500000Y-82540000D03*
X169120000Y-80000000D03*
%TD*%
%TO.C,U9*%
X169120000Y-66000000D03*
X161500000Y-68540000D03*
X169120000Y-68540000D03*
D11*
X161500000Y-66000000D03*
%TD*%
D15*
%TO.C,U10*%
X169120000Y-88500000D03*
X161500000Y-91040000D03*
X169120000Y-91040000D03*
D11*
X161500000Y-88500000D03*
%TD*%
D15*
%TO.C,U11*%
X173300000Y-119500000D03*
X186000000Y-101720000D03*
X173300000Y-116960000D03*
X186000000Y-104260000D03*
X173300000Y-114420000D03*
X186000000Y-106800000D03*
X173300000Y-111880000D03*
X186000000Y-109340000D03*
X173300000Y-109340000D03*
X186000000Y-111880000D03*
X173300000Y-106800000D03*
X186000000Y-114420000D03*
X173300000Y-104260000D03*
X186000000Y-116960000D03*
X173300000Y-101720000D03*
D11*
X186000000Y-119500000D03*
%TD*%
%TO.C,U12*%
X186000000Y-142000000D03*
D15*
X173300000Y-124220000D03*
X186000000Y-139460000D03*
X173300000Y-126760000D03*
X186000000Y-136920000D03*
X173300000Y-129300000D03*
X186000000Y-134380000D03*
X173300000Y-131840000D03*
X186000000Y-131840000D03*
X173300000Y-134380000D03*
X186000000Y-129300000D03*
X173300000Y-136920000D03*
X186000000Y-126760000D03*
X173300000Y-139460000D03*
X186000000Y-124220000D03*
X173300000Y-142000000D03*
%TD*%
D11*
%TO.C,U13*%
X161500000Y-72000000D03*
D15*
X169120000Y-74540000D03*
X161500000Y-74540000D03*
X169120000Y-72000000D03*
%TD*%
%TO.C,U14*%
X169120000Y-94500000D03*
X161500000Y-97040000D03*
X169120000Y-97040000D03*
D11*
X161500000Y-94500000D03*
%TD*%
D15*
%TO.C,U15*%
X169120000Y-102500000D03*
X161500000Y-105040000D03*
X169120000Y-105040000D03*
D11*
X161500000Y-102500000D03*
%TD*%
D15*
%TO.C,U16*%
X169120000Y-125000000D03*
X161500000Y-127540000D03*
X169120000Y-127540000D03*
D11*
X161500000Y-125000000D03*
%TD*%
%TO.C,U17*%
X161500000Y-111000000D03*
D15*
X169120000Y-113540000D03*
X161500000Y-113540000D03*
X169120000Y-111000000D03*
%TD*%
D11*
%TO.C,U18*%
X161500000Y-133500000D03*
D15*
X169120000Y-136040000D03*
X161500000Y-136040000D03*
X169120000Y-133500000D03*
%TD*%
D11*
%TO.C,U19*%
X161500000Y-117000000D03*
D15*
X169120000Y-119540000D03*
X161500000Y-119540000D03*
X169120000Y-117000000D03*
%TD*%
%TO.C,U20*%
X169120000Y-139500000D03*
X161500000Y-142040000D03*
X169120000Y-142040000D03*
D11*
X161500000Y-139500000D03*
%TD*%
D10*
%TO.C,R1*%
X111000000Y-127000000D03*
D15*
X111000000Y-137160000D03*
%TD*%
D10*
%TO.C,R2*%
X116000000Y-127000000D03*
D15*
X116000000Y-137160000D03*
%TD*%
%TO.C,R3*%
X121000000Y-137160000D03*
D10*
X121000000Y-127000000D03*
%TD*%
%TO.C,R4*%
X126000000Y-127000000D03*
D15*
X126000000Y-137160000D03*
%TD*%
D10*
%TO.C,R5*%
X125660000Y-62500000D03*
D15*
X115500000Y-62500000D03*
%TD*%
%TO.C,R6*%
X115500000Y-77500000D03*
D10*
X125660000Y-77500000D03*
%TD*%
D15*
%TO.C,R7*%
X115500000Y-67500000D03*
D10*
X125660000Y-67500000D03*
%TD*%
%TO.C,R8*%
X125660000Y-82500000D03*
D15*
X115500000Y-82500000D03*
%TD*%
%TO.C,R9*%
X115500000Y-72500000D03*
D10*
X125660000Y-72500000D03*
%TD*%
%TO.C,R10*%
X125660000Y-87500000D03*
D15*
X115500000Y-87500000D03*
%TD*%
D10*
%TO.C,R11*%
X125660000Y-92500000D03*
D15*
X115500000Y-92500000D03*
%TD*%
%TO.C,R12*%
X115500000Y-107500000D03*
D10*
X125660000Y-107500000D03*
%TD*%
D15*
%TO.C,R13*%
X115500000Y-97500000D03*
D10*
X125660000Y-97500000D03*
%TD*%
%TO.C,R14*%
X125660000Y-112500000D03*
D15*
X115500000Y-112500000D03*
%TD*%
%TO.C,R15*%
X115500000Y-102500000D03*
D10*
X125660000Y-102500000D03*
%TD*%
D15*
%TO.C,R16*%
X115500000Y-117500000D03*
D10*
X125660000Y-117500000D03*
%TD*%
D16*
%TO.C,J1*%
X144000000Y-55000000D03*
G36*
G01*
X140500000Y-53250000D02*
X140500000Y-56750000D01*
G75*
G02*
X139750000Y-57500000I-750000J0D01*
G01*
X138250000Y-57500000D01*
G75*
G02*
X137500000Y-56750000I0J750000D01*
G01*
X137500000Y-53250000D01*
G75*
G02*
X138250000Y-52500000I750000J0D01*
G01*
X139750000Y-52500000D01*
G75*
G02*
X140500000Y-53250000I0J-750000D01*
G01*
G37*
G36*
G01*
X135500000Y-53250000D02*
X135500000Y-56750000D01*
G75*
G02*
X134750000Y-57500000I-750000J0D01*
G01*
X133250000Y-57500000D01*
G75*
G02*
X132500000Y-56750000I0J750000D01*
G01*
X132500000Y-53250000D01*
G75*
G02*
X133250000Y-52500000I750000J0D01*
G01*
X134750000Y-52500000D01*
G75*
G02*
X135500000Y-53250000I0J-750000D01*
G01*
G37*
G36*
G01*
X130500000Y-53250000D02*
X130500000Y-56750000D01*
G75*
G02*
X129750000Y-57500000I-750000J0D01*
G01*
X128250000Y-57500000D01*
G75*
G02*
X127500000Y-56750000I0J750000D01*
G01*
X127500000Y-53250000D01*
G75*
G02*
X128250000Y-52500000I750000J0D01*
G01*
X129750000Y-52500000D01*
G75*
G02*
X130500000Y-53250000I0J-750000D01*
G01*
G37*
%TD*%
%TO.C,J2*%
X111000000Y-145000000D03*
G36*
G01*
X114500000Y-146750000D02*
X114500000Y-143250000D01*
G75*
G02*
X115250000Y-142500000I750000J0D01*
G01*
X116750000Y-142500000D01*
G75*
G02*
X117500000Y-143250000I0J-750000D01*
G01*
X117500000Y-146750000D01*
G75*
G02*
X116750000Y-147500000I-750000J0D01*
G01*
X115250000Y-147500000D01*
G75*
G02*
X114500000Y-146750000I0J750000D01*
G01*
G37*
G36*
G01*
X119500000Y-146750000D02*
X119500000Y-143250000D01*
G75*
G02*
X120250000Y-142500000I750000J0D01*
G01*
X121750000Y-142500000D01*
G75*
G02*
X122500000Y-143250000I0J-750000D01*
G01*
X122500000Y-146750000D01*
G75*
G02*
X121750000Y-147500000I-750000J0D01*
G01*
X120250000Y-147500000D01*
G75*
G02*
X119500000Y-146750000I0J750000D01*
G01*
G37*
G36*
G01*
X124500000Y-146750000D02*
X124500000Y-143250000D01*
G75*
G02*
X125250000Y-142500000I750000J0D01*
G01*
X126750000Y-142500000D01*
G75*
G02*
X127500000Y-143250000I0J-750000D01*
G01*
X127500000Y-146750000D01*
G75*
G02*
X126750000Y-147500000I-750000J0D01*
G01*
X125250000Y-147500000D01*
G75*
G02*
X124500000Y-146750000I0J750000D01*
G01*
G37*
%TD*%
%TO.C,J5*%
G36*
G01*
X144500000Y-146750000D02*
X144500000Y-143250000D01*
G75*
G02*
X145250000Y-142500000I750000J0D01*
G01*
X146750000Y-142500000D01*
G75*
G02*
X147500000Y-143250000I0J-750000D01*
G01*
X147500000Y-146750000D01*
G75*
G02*
X146750000Y-147500000I-750000J0D01*
G01*
X145250000Y-147500000D01*
G75*
G02*
X144500000Y-146750000I0J750000D01*
G01*
G37*
G36*
G01*
X139500000Y-146750000D02*
X139500000Y-143250000D01*
G75*
G02*
X140250000Y-142500000I750000J0D01*
G01*
X141750000Y-142500000D01*
G75*
G02*
X142500000Y-143250000I0J-750000D01*
G01*
X142500000Y-146750000D01*
G75*
G02*
X141750000Y-147500000I-750000J0D01*
G01*
X140250000Y-147500000D01*
G75*
G02*
X139500000Y-146750000I0J750000D01*
G01*
G37*
G36*
G01*
X134500000Y-146750000D02*
X134500000Y-143250000D01*
G75*
G02*
X135250000Y-142500000I750000J0D01*
G01*
X136750000Y-142500000D01*
G75*
G02*
X137500000Y-143250000I0J-750000D01*
G01*
X137500000Y-146750000D01*
G75*
G02*
X136750000Y-147500000I-750000J0D01*
G01*
X135250000Y-147500000D01*
G75*
G02*
X134500000Y-146750000I0J750000D01*
G01*
G37*
X131000000Y-145000000D03*
%TD*%
M02*
