%TF.GenerationSoftware,KiCad,Pcbnew,(5.1.9)-1*%
%TF.CreationDate,2021-04-02T10:28:53-03:00*%
%TF.ProjectId,BTIBR-PCB,42544942-522d-4504-9342-2e6b69636164,rev?*%
%TF.SameCoordinates,Original*%
%TF.FileFunction,Soldermask,Top*%
%TF.FilePolarity,Negative*%
%FSLAX46Y46*%
G04 Gerber Fmt 4.6, Leading zero omitted, Abs format (unit mm)*
G04 Created by KiCad (PCBNEW (5.1.9)-1) date 2021-04-02 10:28:53*
%MOMM*%
%LPD*%
G01*
G04 APERTURE LIST*
%ADD10R,1.600000X1.600000*%
%ADD11O,1.600000X1.600000*%
%ADD12C,1.524000*%
%ADD13C,1.440000*%
%ADD14C,1.600000*%
%ADD15R,3.000000X5.000000*%
%ADD16C,1.800000*%
%ADD17R,1.800000X1.800000*%
%ADD18O,1.700000X1.700000*%
%ADD19R,1.700000X1.700000*%
%ADD20R,5.000000X3.000000*%
G04 APERTURE END LIST*
D10*
%TO.C,U13*%
X114580000Y-64412000D03*
D11*
X96800000Y-77112000D03*
X112040000Y-64412000D03*
X99340000Y-77112000D03*
X109500000Y-64412000D03*
X101880000Y-77112000D03*
X106960000Y-64412000D03*
X104420000Y-77112000D03*
X104420000Y-64412000D03*
X106960000Y-77112000D03*
X101880000Y-64412000D03*
X109500000Y-77112000D03*
X99340000Y-64412000D03*
X112040000Y-77112000D03*
X96800000Y-64412000D03*
X114580000Y-77112000D03*
%TD*%
D12*
%TO.C,U11*%
X97130000Y-123082000D03*
X97130000Y-112922000D03*
X97130000Y-115462000D03*
X110130000Y-115462000D03*
X97130000Y-118002000D03*
X97130000Y-120542000D03*
X110130000Y-118002000D03*
X110130000Y-120542000D03*
%TD*%
%TO.C,U2*%
X176172000Y-123012000D03*
X176172000Y-112852000D03*
X176172000Y-115392000D03*
X189172000Y-115392000D03*
X176172000Y-117932000D03*
X176172000Y-120472000D03*
X189172000Y-117932000D03*
X189172000Y-120472000D03*
%TD*%
%TO.C,U7*%
X136342000Y-123102000D03*
X136342000Y-112942000D03*
X136342000Y-115482000D03*
X149342000Y-115482000D03*
X136342000Y-118022000D03*
X136342000Y-120562000D03*
X149342000Y-118022000D03*
X149342000Y-120562000D03*
%TD*%
D13*
%TO.C,RV2*%
X152822000Y-88002000D03*
X150282000Y-82922000D03*
X147742000Y-88002000D03*
%TD*%
D11*
%TO.C,R7*%
X123802000Y-88412000D03*
D14*
X136502000Y-88412000D03*
%TD*%
%TO.C,R8*%
X124092000Y-103502000D03*
D11*
X136792000Y-103502000D03*
%TD*%
D14*
%TO.C,R12*%
X158042000Y-97232000D03*
D11*
X158042000Y-84532000D03*
%TD*%
D14*
%TO.C,R9*%
X129192000Y-92582000D03*
D11*
X141892000Y-92582000D03*
%TD*%
D10*
%TO.C,U6*%
X139422000Y-88952000D03*
D11*
X141962000Y-81332000D03*
X141962000Y-88952000D03*
X139422000Y-81332000D03*
%TD*%
%TO.C,R11*%
X161022000Y-106932000D03*
D14*
X148322000Y-106932000D03*
%TD*%
D11*
%TO.C,R10*%
X162732000Y-101022000D03*
D14*
X150032000Y-101022000D03*
%TD*%
D10*
%TO.C,U8*%
X146972000Y-95882000D03*
D11*
X139352000Y-103502000D03*
X144432000Y-95882000D03*
X141892000Y-103502000D03*
X141892000Y-95882000D03*
X144432000Y-103502000D03*
X139352000Y-95882000D03*
X146972000Y-103502000D03*
%TD*%
D10*
%TO.C,U9*%
X153792000Y-64432000D03*
D11*
X136012000Y-77132000D03*
X151252000Y-64432000D03*
X138552000Y-77132000D03*
X148712000Y-64432000D03*
X141092000Y-77132000D03*
X146172000Y-64432000D03*
X143632000Y-77132000D03*
X143632000Y-64432000D03*
X146172000Y-77132000D03*
X141092000Y-64432000D03*
X148712000Y-77132000D03*
X138552000Y-64432000D03*
X151252000Y-77132000D03*
X136012000Y-64432000D03*
X153792000Y-77132000D03*
%TD*%
D15*
%TO.C,J9*%
X152652000Y-57022000D03*
G36*
G01*
X149152000Y-55272000D02*
X149152000Y-58772000D01*
G75*
G02*
X148402000Y-59522000I-750000J0D01*
G01*
X146902000Y-59522000D01*
G75*
G02*
X146152000Y-58772000I0J750000D01*
G01*
X146152000Y-55272000D01*
G75*
G02*
X146902000Y-54522000I750000J0D01*
G01*
X148402000Y-54522000D01*
G75*
G02*
X149152000Y-55272000I0J-750000D01*
G01*
G37*
G36*
G01*
X144152000Y-55272000D02*
X144152000Y-58772000D01*
G75*
G02*
X143402000Y-59522000I-750000J0D01*
G01*
X141902000Y-59522000D01*
G75*
G02*
X141152000Y-58772000I0J750000D01*
G01*
X141152000Y-55272000D01*
G75*
G02*
X141902000Y-54522000I750000J0D01*
G01*
X143402000Y-54522000D01*
G75*
G02*
X144152000Y-55272000I0J-750000D01*
G01*
G37*
G36*
G01*
X139152000Y-55272000D02*
X139152000Y-58772000D01*
G75*
G02*
X138402000Y-59522000I-750000J0D01*
G01*
X136902000Y-59522000D01*
G75*
G02*
X136152000Y-58772000I0J750000D01*
G01*
X136152000Y-55272000D01*
G75*
G02*
X136902000Y-54522000I750000J0D01*
G01*
X138402000Y-54522000D01*
G75*
G02*
X139152000Y-55272000I0J-750000D01*
G01*
G37*
%TD*%
D14*
%TO.C,C11*%
X143742000Y-108912000D03*
D10*
X143742000Y-106912000D03*
%TD*%
D14*
%TO.C,C12*%
X139352000Y-107382000D03*
X134352000Y-107382000D03*
%TD*%
%TO.C,C9*%
X152462000Y-94482000D03*
D10*
X150462000Y-94482000D03*
%TD*%
%TO.C,C5*%
X130142000Y-58222000D03*
D14*
X130142000Y-55722000D03*
%TD*%
D13*
%TO.C,RV1*%
X192652000Y-87912000D03*
X190112000Y-82832000D03*
X187572000Y-87912000D03*
%TD*%
D10*
%TO.C,C1*%
X169972000Y-58132000D03*
D14*
X169972000Y-55632000D03*
%TD*%
D10*
%TO.C,C2*%
X190292000Y-94392000D03*
D14*
X192292000Y-94392000D03*
%TD*%
D10*
%TO.C,C3*%
X183572000Y-106822000D03*
D14*
X183572000Y-108822000D03*
%TD*%
%TO.C,C4*%
X179182000Y-107292000D03*
X174182000Y-107292000D03*
%TD*%
D10*
%TO.C,C6*%
X208150000Y-68110000D03*
D14*
X208150000Y-66110000D03*
%TD*%
D10*
%TO.C,C7*%
X218800000Y-68120000D03*
D14*
X218800000Y-66120000D03*
%TD*%
%TO.C,C8*%
X229470000Y-66130000D03*
D10*
X229470000Y-68130000D03*
%TD*%
%TO.C,C10*%
X240120000Y-68120000D03*
D14*
X240120000Y-66120000D03*
%TD*%
D10*
%TO.C,C13*%
X90930000Y-58202000D03*
D14*
X90930000Y-55702000D03*
%TD*%
D16*
%TO.C,D1*%
X206620000Y-110810000D03*
D17*
X206620000Y-108270000D03*
%TD*%
D16*
%TO.C,D2*%
X213620000Y-110810000D03*
D17*
X213620000Y-108270000D03*
%TD*%
%TO.C,D3*%
X220620000Y-108270000D03*
D16*
X220620000Y-110810000D03*
%TD*%
%TO.C,D4*%
X227620000Y-110810000D03*
D17*
X227620000Y-108270000D03*
%TD*%
%TO.C,D5*%
X234620000Y-108270000D03*
D16*
X234620000Y-110810000D03*
%TD*%
D17*
%TO.C,D6*%
X241620000Y-108270000D03*
D16*
X241620000Y-110810000D03*
%TD*%
D18*
%TO.C,J7*%
X220790000Y-74660000D03*
X223330000Y-74660000D03*
X225870000Y-74660000D03*
D19*
X228410000Y-74660000D03*
%TD*%
%TO.C,J15*%
X216540000Y-99100000D03*
D18*
X219080000Y-99100000D03*
X221620000Y-99100000D03*
X224160000Y-99100000D03*
X226700000Y-99100000D03*
X229240000Y-99100000D03*
X231780000Y-99100000D03*
%TD*%
D14*
%TO.C,R14*%
X211650000Y-79900000D03*
D11*
X211650000Y-92600000D03*
%TD*%
%TO.C,R1*%
X163632000Y-88322000D03*
D14*
X176332000Y-88322000D03*
%TD*%
%TO.C,R2*%
X163922000Y-103412000D03*
D11*
X176622000Y-103412000D03*
%TD*%
D14*
%TO.C,R3*%
X169022000Y-92492000D03*
D11*
X181722000Y-92492000D03*
%TD*%
%TO.C,R4*%
X202562000Y-100952000D03*
D14*
X189862000Y-100952000D03*
%TD*%
D11*
%TO.C,R5*%
X200852000Y-106842000D03*
D14*
X188152000Y-106842000D03*
%TD*%
%TO.C,R6*%
X197872000Y-97142000D03*
D11*
X197872000Y-84442000D03*
%TD*%
%TO.C,R17*%
X216650000Y-92600000D03*
D14*
X216650000Y-79900000D03*
%TD*%
%TO.C,R19*%
X221650000Y-79900000D03*
D11*
X221650000Y-92600000D03*
%TD*%
%TO.C,R22*%
X226650000Y-92600000D03*
D14*
X226650000Y-79900000D03*
%TD*%
%TO.C,R23*%
X231650000Y-79900000D03*
D11*
X231650000Y-92600000D03*
%TD*%
%TO.C,R24*%
X236650000Y-92600000D03*
D14*
X236650000Y-79900000D03*
%TD*%
D10*
%TO.C,U1*%
X179252000Y-88862000D03*
D11*
X181792000Y-81242000D03*
X181792000Y-88862000D03*
X179252000Y-81242000D03*
%TD*%
%TO.C,U3*%
X186802000Y-103412000D03*
X179182000Y-95792000D03*
X184262000Y-103412000D03*
X181722000Y-95792000D03*
X181722000Y-103412000D03*
X184262000Y-95792000D03*
X179182000Y-103412000D03*
D10*
X186802000Y-95792000D03*
%TD*%
D15*
%TO.C,J4*%
X192482000Y-56932000D03*
G36*
G01*
X188982000Y-55182000D02*
X188982000Y-58682000D01*
G75*
G02*
X188232000Y-59432000I-750000J0D01*
G01*
X186732000Y-59432000D01*
G75*
G02*
X185982000Y-58682000I0J750000D01*
G01*
X185982000Y-55182000D01*
G75*
G02*
X186732000Y-54432000I750000J0D01*
G01*
X188232000Y-54432000D01*
G75*
G02*
X188982000Y-55182000I0J-750000D01*
G01*
G37*
G36*
G01*
X183982000Y-55182000D02*
X183982000Y-58682000D01*
G75*
G02*
X183232000Y-59432000I-750000J0D01*
G01*
X181732000Y-59432000D01*
G75*
G02*
X180982000Y-58682000I0J750000D01*
G01*
X180982000Y-55182000D01*
G75*
G02*
X181732000Y-54432000I750000J0D01*
G01*
X183232000Y-54432000D01*
G75*
G02*
X183982000Y-55182000I0J-750000D01*
G01*
G37*
G36*
G01*
X178982000Y-55182000D02*
X178982000Y-58682000D01*
G75*
G02*
X178232000Y-59432000I-750000J0D01*
G01*
X176732000Y-59432000D01*
G75*
G02*
X175982000Y-58682000I0J750000D01*
G01*
X175982000Y-55182000D01*
G75*
G02*
X176732000Y-54432000I750000J0D01*
G01*
X178232000Y-54432000D01*
G75*
G02*
X178982000Y-55182000I0J-750000D01*
G01*
G37*
%TD*%
%TO.C,J6*%
G36*
G01*
X213150000Y-55480000D02*
X213150000Y-58980000D01*
G75*
G02*
X212400000Y-59730000I-750000J0D01*
G01*
X210900000Y-59730000D01*
G75*
G02*
X210150000Y-58980000I0J750000D01*
G01*
X210150000Y-55480000D01*
G75*
G02*
X210900000Y-54730000I750000J0D01*
G01*
X212400000Y-54730000D01*
G75*
G02*
X213150000Y-55480000I0J-750000D01*
G01*
G37*
G36*
G01*
X218150000Y-55480000D02*
X218150000Y-58980000D01*
G75*
G02*
X217400000Y-59730000I-750000J0D01*
G01*
X215900000Y-59730000D01*
G75*
G02*
X215150000Y-58980000I0J750000D01*
G01*
X215150000Y-55480000D01*
G75*
G02*
X215900000Y-54730000I750000J0D01*
G01*
X217400000Y-54730000D01*
G75*
G02*
X218150000Y-55480000I0J-750000D01*
G01*
G37*
X221650000Y-57230000D03*
%TD*%
%TO.C,J10*%
X236650000Y-57230000D03*
G36*
G01*
X233150000Y-55480000D02*
X233150000Y-58980000D01*
G75*
G02*
X232400000Y-59730000I-750000J0D01*
G01*
X230900000Y-59730000D01*
G75*
G02*
X230150000Y-58980000I0J750000D01*
G01*
X230150000Y-55480000D01*
G75*
G02*
X230900000Y-54730000I750000J0D01*
G01*
X232400000Y-54730000D01*
G75*
G02*
X233150000Y-55480000I0J-750000D01*
G01*
G37*
G36*
G01*
X228150000Y-55480000D02*
X228150000Y-58980000D01*
G75*
G02*
X227400000Y-59730000I-750000J0D01*
G01*
X225900000Y-59730000D01*
G75*
G02*
X225150000Y-58980000I0J750000D01*
G01*
X225150000Y-55480000D01*
G75*
G02*
X225900000Y-54730000I750000J0D01*
G01*
X227400000Y-54730000D01*
G75*
G02*
X228150000Y-55480000I0J-750000D01*
G01*
G37*
%TD*%
%TO.C,J12*%
G36*
G01*
X220160000Y-121700000D02*
X220160000Y-118200000D01*
G75*
G02*
X220910000Y-117450000I750000J0D01*
G01*
X222410000Y-117450000D01*
G75*
G02*
X223160000Y-118200000I0J-750000D01*
G01*
X223160000Y-121700000D01*
G75*
G02*
X222410000Y-122450000I-750000J0D01*
G01*
X220910000Y-122450000D01*
G75*
G02*
X220160000Y-121700000I0J750000D01*
G01*
G37*
G36*
G01*
X215160000Y-121700000D02*
X215160000Y-118200000D01*
G75*
G02*
X215910000Y-117450000I750000J0D01*
G01*
X217410000Y-117450000D01*
G75*
G02*
X218160000Y-118200000I0J-750000D01*
G01*
X218160000Y-121700000D01*
G75*
G02*
X217410000Y-122450000I-750000J0D01*
G01*
X215910000Y-122450000D01*
G75*
G02*
X215160000Y-121700000I0J750000D01*
G01*
G37*
X211660000Y-119950000D03*
%TD*%
%TO.C,J14*%
X113440000Y-57002000D03*
G36*
G01*
X109940000Y-55252000D02*
X109940000Y-58752000D01*
G75*
G02*
X109190000Y-59502000I-750000J0D01*
G01*
X107690000Y-59502000D01*
G75*
G02*
X106940000Y-58752000I0J750000D01*
G01*
X106940000Y-55252000D01*
G75*
G02*
X107690000Y-54502000I750000J0D01*
G01*
X109190000Y-54502000D01*
G75*
G02*
X109940000Y-55252000I0J-750000D01*
G01*
G37*
G36*
G01*
X104940000Y-55252000D02*
X104940000Y-58752000D01*
G75*
G02*
X104190000Y-59502000I-750000J0D01*
G01*
X102690000Y-59502000D01*
G75*
G02*
X101940000Y-58752000I0J750000D01*
G01*
X101940000Y-55252000D01*
G75*
G02*
X102690000Y-54502000I750000J0D01*
G01*
X104190000Y-54502000D01*
G75*
G02*
X104940000Y-55252000I0J-750000D01*
G01*
G37*
G36*
G01*
X99940000Y-55252000D02*
X99940000Y-58752000D01*
G75*
G02*
X99190000Y-59502000I-750000J0D01*
G01*
X97690000Y-59502000D01*
G75*
G02*
X96940000Y-58752000I0J750000D01*
G01*
X96940000Y-55252000D01*
G75*
G02*
X97690000Y-54502000I750000J0D01*
G01*
X99190000Y-54502000D01*
G75*
G02*
X99940000Y-55252000I0J-750000D01*
G01*
G37*
%TD*%
%TO.C,J16*%
X226660000Y-119950000D03*
G36*
G01*
X230160000Y-121700000D02*
X230160000Y-118200000D01*
G75*
G02*
X230910000Y-117450000I750000J0D01*
G01*
X232410000Y-117450000D01*
G75*
G02*
X233160000Y-118200000I0J-750000D01*
G01*
X233160000Y-121700000D01*
G75*
G02*
X232410000Y-122450000I-750000J0D01*
G01*
X230910000Y-122450000D01*
G75*
G02*
X230160000Y-121700000I0J750000D01*
G01*
G37*
G36*
G01*
X235160000Y-121700000D02*
X235160000Y-118200000D01*
G75*
G02*
X235910000Y-117450000I750000J0D01*
G01*
X237410000Y-117450000D01*
G75*
G02*
X238160000Y-118200000I0J-750000D01*
G01*
X238160000Y-121700000D01*
G75*
G02*
X237410000Y-122450000I-750000J0D01*
G01*
X235910000Y-122450000D01*
G75*
G02*
X235160000Y-121700000I0J750000D01*
G01*
G37*
%TD*%
D20*
%TO.C,J1*%
X64790000Y-110990000D03*
G36*
G01*
X63040000Y-114490000D02*
X66540000Y-114490000D01*
G75*
G02*
X67290000Y-115240000I0J-750000D01*
G01*
X67290000Y-116740000D01*
G75*
G02*
X66540000Y-117490000I-750000J0D01*
G01*
X63040000Y-117490000D01*
G75*
G02*
X62290000Y-116740000I0J750000D01*
G01*
X62290000Y-115240000D01*
G75*
G02*
X63040000Y-114490000I750000J0D01*
G01*
G37*
G36*
G01*
X63040000Y-119490000D02*
X66540000Y-119490000D01*
G75*
G02*
X67290000Y-120240000I0J-750000D01*
G01*
X67290000Y-121740000D01*
G75*
G02*
X66540000Y-122490000I-750000J0D01*
G01*
X63040000Y-122490000D01*
G75*
G02*
X62290000Y-121740000I0J750000D01*
G01*
X62290000Y-120240000D01*
G75*
G02*
X63040000Y-119490000I750000J0D01*
G01*
G37*
%TD*%
D10*
%TO.C,U4*%
X193622000Y-64342000D03*
D11*
X175842000Y-77042000D03*
X191082000Y-64342000D03*
X178382000Y-77042000D03*
X188542000Y-64342000D03*
X180922000Y-77042000D03*
X186002000Y-64342000D03*
X183462000Y-77042000D03*
X183462000Y-64342000D03*
X186002000Y-77042000D03*
X180922000Y-64342000D03*
X188542000Y-77042000D03*
X178382000Y-64342000D03*
X191082000Y-77042000D03*
X175842000Y-64342000D03*
X193622000Y-77042000D03*
%TD*%
D12*
%TO.C,U5*%
X62220000Y-102160000D03*
X80220000Y-102160000D03*
X62220000Y-62160000D03*
X80220000Y-62160000D03*
%TD*%
D14*
%TO.C,C14*%
X113250000Y-94462000D03*
D10*
X111250000Y-94462000D03*
%TD*%
%TO.C,C15*%
X104530000Y-106892000D03*
D14*
X104530000Y-108892000D03*
%TD*%
%TO.C,C16*%
X95140000Y-107362000D03*
X100140000Y-107362000D03*
%TD*%
%TO.C,R13*%
X97290000Y-88392000D03*
D11*
X84590000Y-88392000D03*
%TD*%
D14*
%TO.C,R15*%
X84880000Y-103482000D03*
D11*
X97580000Y-103482000D03*
%TD*%
%TO.C,R16*%
X102680000Y-92562000D03*
D14*
X89980000Y-92562000D03*
%TD*%
D11*
%TO.C,R18*%
X123520000Y-101022000D03*
D14*
X110820000Y-101022000D03*
%TD*%
D11*
%TO.C,R20*%
X121810000Y-106912000D03*
D14*
X109110000Y-106912000D03*
%TD*%
%TO.C,R21*%
X118830000Y-97212000D03*
D11*
X118830000Y-84512000D03*
%TD*%
D13*
%TO.C,RV3*%
X113610000Y-87982000D03*
X111070000Y-82902000D03*
X108530000Y-87982000D03*
%TD*%
D11*
%TO.C,U10*%
X100210000Y-81312000D03*
X102750000Y-88932000D03*
X102750000Y-81312000D03*
D10*
X100210000Y-88932000D03*
%TD*%
D11*
%TO.C,U12*%
X107760000Y-103482000D03*
X100140000Y-95862000D03*
X105220000Y-103482000D03*
X102680000Y-95862000D03*
X102680000Y-103482000D03*
X105220000Y-95862000D03*
X100140000Y-103482000D03*
D10*
X107760000Y-95862000D03*
%TD*%
D19*
%TO.C,J5*%
X126492000Y-115292000D03*
D18*
X126492000Y-117832000D03*
X126492000Y-120372000D03*
%TD*%
%TO.C,J8*%
X130302000Y-83702000D03*
X130302000Y-81162000D03*
X130302000Y-78622000D03*
X130302000Y-76082000D03*
X130302000Y-73542000D03*
X130302000Y-71002000D03*
X130302000Y-68462000D03*
X130302000Y-65922000D03*
D19*
X130302000Y-63382000D03*
%TD*%
D18*
%TO.C,J11*%
X87280000Y-120352000D03*
X87280000Y-117812000D03*
D19*
X87280000Y-115272000D03*
%TD*%
%TO.C,J13*%
X91090000Y-63362000D03*
D18*
X91090000Y-65902000D03*
X91090000Y-68442000D03*
X91090000Y-70982000D03*
X91090000Y-73522000D03*
X91090000Y-76062000D03*
X91090000Y-78602000D03*
X91090000Y-81142000D03*
X91090000Y-83682000D03*
%TD*%
D19*
%TO.C,J2*%
X166322000Y-115202000D03*
D18*
X166322000Y-117742000D03*
X166322000Y-120282000D03*
X166322000Y-122822000D03*
%TD*%
D19*
%TO.C,J3*%
X170132000Y-63382000D03*
D18*
X170132000Y-65922000D03*
X170132000Y-68462000D03*
X170132000Y-71002000D03*
X170132000Y-73542000D03*
X170132000Y-76082000D03*
X170132000Y-78622000D03*
X170132000Y-81162000D03*
X170132000Y-83702000D03*
%TD*%
M02*
