M48
; DRILL file {KiCad (5.1.9)-1} date 04/02/21 10:28:55
; FORMAT={-:-/ absolute / metric / decimal}
; #@! TF.CreationDate,2021-04-02T10:28:55-03:00
; #@! TF.GenerationSoftware,Kicad,Pcbnew,(5.1.9)-1
FMAT,2
METRIC
T1C0.762
T2C0.800
T3C0.900
T4C1.000
T5C1.700
T6C3.500
%
G90
G05
T1
X62.22Y-62.16
X62.22Y-102.16
X80.22Y-62.16
X80.22Y-102.16
X97.13Y-112.922
X97.13Y-115.462
X97.13Y-118.002
X97.13Y-120.542
X97.13Y-123.082
X110.13Y-115.462
X110.13Y-118.002
X110.13Y-120.542
X136.342Y-112.942
X136.342Y-115.482
X136.342Y-118.022
X136.342Y-120.562
X136.342Y-123.102
X149.342Y-115.482
X149.342Y-118.022
X149.342Y-120.562
X176.172Y-112.852
X176.172Y-115.392
X176.172Y-117.932
X176.172Y-120.472
X176.172Y-123.012
X189.172Y-115.392
X189.172Y-117.932
X189.172Y-120.472
T2
X84.59Y-88.392
X84.88Y-103.482
X89.98Y-92.562
X90.93Y-55.702
X90.93Y-58.202
X95.14Y-107.362
X96.8Y-64.412
X96.8Y-77.112
X97.29Y-88.392
X97.58Y-103.482
X99.34Y-64.412
X99.34Y-77.112
X100.14Y-95.862
X100.14Y-103.482
X100.14Y-107.362
X100.21Y-81.312
X100.21Y-88.932
X101.88Y-64.412
X101.88Y-77.112
X102.68Y-92.562
X102.68Y-95.862
X102.68Y-103.482
X102.75Y-81.312
X102.75Y-88.932
X104.42Y-64.412
X104.42Y-77.112
X104.53Y-106.892
X104.53Y-108.892
X105.22Y-95.862
X105.22Y-103.482
X106.96Y-64.412
X106.96Y-77.112
X107.76Y-95.862
X107.76Y-103.482
X108.53Y-87.982
X109.11Y-106.912
X109.5Y-64.412
X109.5Y-77.112
X110.82Y-101.022
X111.07Y-82.902
X111.25Y-94.462
X112.04Y-64.412
X112.04Y-77.112
X113.25Y-94.462
X113.61Y-87.982
X114.58Y-64.412
X114.58Y-77.112
X118.83Y-84.512
X118.83Y-97.212
X121.81Y-106.912
X123.52Y-101.022
X123.802Y-88.412
X124.092Y-103.502
X129.192Y-92.582
X130.142Y-55.722
X130.142Y-58.222
X134.352Y-107.382
X136.012Y-64.432
X136.012Y-77.132
X136.502Y-88.412
X136.792Y-103.502
X138.552Y-64.432
X138.552Y-77.132
X139.352Y-95.882
X139.352Y-103.502
X139.352Y-107.382
X139.422Y-81.332
X139.422Y-88.952
X141.092Y-64.432
X141.092Y-77.132
X141.892Y-92.582
X141.892Y-95.882
X141.892Y-103.502
X141.962Y-81.332
X141.962Y-88.952
X143.632Y-64.432
X143.632Y-77.132
X143.742Y-106.912
X143.742Y-108.912
X144.432Y-95.882
X144.432Y-103.502
X146.172Y-64.432
X146.172Y-77.132
X146.972Y-95.882
X146.972Y-103.502
X147.742Y-88.002
X148.322Y-106.932
X148.712Y-64.432
X148.712Y-77.132
X150.032Y-101.022
X150.282Y-82.922
X150.462Y-94.482
X151.252Y-64.432
X151.252Y-77.132
X152.462Y-94.482
X152.822Y-88.002
X153.792Y-64.432
X153.792Y-77.132
X158.042Y-84.532
X158.042Y-97.232
X161.022Y-106.932
X162.732Y-101.022
X163.632Y-88.322
X163.922Y-103.412
X169.022Y-92.492
X169.972Y-55.632
X169.972Y-58.132
X174.182Y-107.292
X175.842Y-64.342
X175.842Y-77.042
X176.332Y-88.322
X176.622Y-103.412
X178.382Y-64.342
X178.382Y-77.042
X179.182Y-95.792
X179.182Y-103.412
X179.182Y-107.292
X179.252Y-81.242
X179.252Y-88.862
X180.922Y-64.342
X180.922Y-77.042
X181.722Y-92.492
X181.722Y-95.792
X181.722Y-103.412
X181.792Y-81.242
X181.792Y-88.862
X183.462Y-64.342
X183.462Y-77.042
X183.572Y-106.822
X183.572Y-108.822
X184.262Y-95.792
X184.262Y-103.412
X186.002Y-64.342
X186.002Y-77.042
X186.802Y-95.792
X186.802Y-103.412
X187.572Y-87.912
X188.152Y-106.842
X188.542Y-64.342
X188.542Y-77.042
X189.862Y-100.952
X190.112Y-82.832
X190.292Y-94.392
X191.082Y-64.342
X191.082Y-77.042
X192.292Y-94.392
X192.652Y-87.912
X193.622Y-64.342
X193.622Y-77.042
X197.872Y-84.442
X197.872Y-97.142
X200.852Y-106.842
X202.562Y-100.952
X208.15Y-66.11
X208.15Y-68.11
X211.65Y-79.9
X211.65Y-92.6
X216.65Y-79.9
X216.65Y-92.6
X218.8Y-66.12
X218.8Y-68.12
X221.65Y-79.9
X221.65Y-92.6
X226.65Y-79.9
X226.65Y-92.6
X229.47Y-66.13
X229.47Y-68.13
X231.65Y-79.9
X231.65Y-92.6
X236.65Y-79.9
X236.65Y-92.6
X240.12Y-66.12
X240.12Y-68.12
T3
X206.62Y-108.27
X206.62Y-110.81
X213.62Y-108.27
X213.62Y-110.81
X220.62Y-108.27
X220.62Y-110.81
X227.62Y-108.27
X227.62Y-110.81
X234.62Y-108.27
X234.62Y-110.81
X241.62Y-108.27
X241.62Y-110.81
T4
X87.28Y-115.272
X87.28Y-117.812
X87.28Y-120.352
X91.09Y-63.362
X91.09Y-65.902
X91.09Y-68.442
X91.09Y-70.982
X91.09Y-73.522
X91.09Y-76.062
X91.09Y-78.602
X91.09Y-81.142
X91.09Y-83.682
X126.492Y-115.292
X126.492Y-117.832
X126.492Y-120.372
X130.302Y-63.382
X130.302Y-65.922
X130.302Y-68.462
X130.302Y-71.002
X130.302Y-73.542
X130.302Y-76.082
X130.302Y-78.622
X130.302Y-81.162
X130.302Y-83.702
X166.322Y-115.202
X166.322Y-117.742
X166.322Y-120.282
X166.322Y-122.822
X170.132Y-63.382
X170.132Y-65.922
X170.132Y-68.462
X170.132Y-71.002
X170.132Y-73.542
X170.132Y-76.082
X170.132Y-78.622
X170.132Y-81.162
X170.132Y-83.702
X216.54Y-99.1
X219.08Y-99.1
X220.79Y-74.66
X221.62Y-99.1
X223.33Y-74.66
X224.16Y-99.1
X225.87Y-74.66
X226.7Y-99.1
X228.41Y-74.66
X229.24Y-99.1
X231.78Y-99.1
T5
X64.79Y-110.99
X64.79Y-115.99
X64.79Y-120.99
X98.44Y-57.002
X103.44Y-57.002
X108.44Y-57.002
X113.44Y-57.002
X137.652Y-57.022
X142.652Y-57.022
X147.652Y-57.022
X152.652Y-57.022
X177.482Y-56.932
X182.482Y-56.932
X187.482Y-56.932
X192.482Y-56.932
X211.65Y-57.23
X211.66Y-119.95
X216.65Y-57.23
X216.66Y-119.95
X221.65Y-57.23
X221.66Y-119.95
X226.65Y-57.23
X226.66Y-119.95
X231.65Y-57.23
X231.66Y-119.95
X236.65Y-57.23
X236.66Y-119.95
T6
X55.0Y-55.0
X55.0Y-122.0
X245.0Y-55.0
X245.0Y-122.0
T0
M30
