M48
; DRILL file {KiCad (5.1.9)-1} date 08/01/21 10:15:13
; FORMAT={-:-/ absolute / metric / decimal}
; #@! TF.CreationDate,2021-08-01T10:15:13-03:00
; #@! TF.GenerationSoftware,Kicad,Pcbnew,(5.1.9)-1
FMAT,2
METRIC
T1C0.800
T2C1.000
T3C1.700
T4C3.200
%
G90
G05
T1
X111.0Y-127.0
X111.0Y-137.16
X115.5Y-62.5
X115.5Y-67.5
X115.5Y-72.5
X115.5Y-77.5
X115.5Y-82.5
X115.5Y-87.5
X115.5Y-92.5
X115.5Y-97.5
X115.5Y-102.5
X115.5Y-107.5
X115.5Y-112.5
X115.5Y-117.5
X116.0Y-127.0
X116.0Y-137.16
X121.0Y-127.0
X121.0Y-137.16
X125.66Y-62.5
X125.66Y-67.5
X125.66Y-72.5
X125.66Y-77.5
X125.66Y-82.5
X125.66Y-87.5
X125.66Y-92.5
X125.66Y-97.5
X125.66Y-102.5
X125.66Y-107.5
X125.66Y-112.5
X125.66Y-117.5
X126.0Y-127.0
X126.0Y-137.16
X128.5Y-117.5
X128.5Y-125.12
X131.04Y-117.5
X131.04Y-125.12
X133.5Y-128.0
X133.5Y-135.62
X136.04Y-128.0
X136.04Y-135.62
X138.46Y-117.5
X138.46Y-125.12
X139.0Y-95.075
X141.0Y-117.5
X141.0Y-125.12
X142.46Y-128.0
X142.46Y-135.62
X145.0Y-128.0
X145.0Y-135.62
X154.5Y-57.0
X154.5Y-59.5
X154.5Y-79.5
X154.5Y-82.0
X154.5Y-102.0
X154.5Y-104.5
X154.5Y-124.5
X154.5Y-127.0
X161.5Y-57.5
X161.5Y-60.04
X161.5Y-66.0
X161.5Y-68.54
X161.5Y-72.0
X161.5Y-74.54
X161.5Y-80.0
X161.5Y-82.54
X161.5Y-88.5
X161.5Y-91.04
X161.5Y-94.5
X161.5Y-97.04
X161.5Y-102.5
X161.5Y-105.04
X161.5Y-111.0
X161.5Y-113.54
X161.5Y-117.0
X161.5Y-119.54
X161.5Y-125.0
X161.5Y-127.54
X161.5Y-133.5
X161.5Y-136.04
X161.5Y-139.5
X161.5Y-142.04
X169.12Y-57.5
X169.12Y-60.04
X169.12Y-66.0
X169.12Y-68.54
X169.12Y-72.0
X169.12Y-74.54
X169.12Y-80.0
X169.12Y-82.54
X169.12Y-88.5
X169.12Y-91.04
X169.12Y-94.5
X169.12Y-97.04
X169.12Y-102.5
X169.12Y-105.04
X169.12Y-111.0
X169.12Y-113.54
X169.12Y-117.0
X169.12Y-119.54
X169.12Y-125.0
X169.12Y-127.54
X169.12Y-133.5
X169.12Y-136.04
X169.12Y-139.5
X169.12Y-142.04
X173.3Y-56.72
X173.3Y-59.26
X173.3Y-61.8
X173.3Y-64.34
X173.3Y-66.88
X173.3Y-69.42
X173.3Y-71.96
X173.3Y-74.5
X173.3Y-79.22
X173.3Y-81.76
X173.3Y-84.3
X173.3Y-86.84
X173.3Y-89.38
X173.3Y-91.92
X173.3Y-94.46
X173.3Y-97.0
X173.3Y-101.72
X173.3Y-104.26
X173.3Y-106.8
X173.3Y-109.34
X173.3Y-111.88
X173.3Y-114.42
X173.3Y-116.96
X173.3Y-119.5
X173.3Y-124.22
X173.3Y-126.76
X173.3Y-129.3
X173.3Y-131.84
X173.3Y-134.38
X173.3Y-136.92
X173.3Y-139.46
X173.3Y-142.0
X186.0Y-56.72
X186.0Y-59.26
X186.0Y-61.8
X186.0Y-64.34
X186.0Y-66.88
X186.0Y-69.42
X186.0Y-71.96
X186.0Y-74.5
X186.0Y-79.22
X186.0Y-81.76
X186.0Y-84.3
X186.0Y-86.84
X186.0Y-89.38
X186.0Y-91.92
X186.0Y-94.46
X186.0Y-97.0
X186.0Y-101.72
X186.0Y-104.26
X186.0Y-106.8
X186.0Y-109.34
X186.0Y-111.88
X186.0Y-114.42
X186.0Y-116.96
X186.0Y-119.5
X186.0Y-124.22
X186.0Y-126.76
X186.0Y-129.3
X186.0Y-131.84
X186.0Y-134.38
X186.0Y-136.92
X186.0Y-139.46
X186.0Y-142.0
T2
X151.42Y-66.0
X151.42Y-69.0
X151.42Y-72.0
X151.42Y-88.5
X151.42Y-91.5
X151.42Y-94.5
X151.42Y-111.0
X151.42Y-114.0
X151.42Y-117.0
X151.42Y-133.5
X151.42Y-136.5
X151.42Y-139.5
X153.96Y-66.0
X153.96Y-69.0
X153.96Y-72.0
X153.96Y-88.5
X153.96Y-91.5
X153.96Y-94.5
X153.96Y-111.0
X153.96Y-114.0
X153.96Y-117.0
X153.96Y-133.5
X153.96Y-136.5
X153.96Y-139.5
X156.5Y-66.0
X156.5Y-69.0
X156.5Y-72.0
X156.5Y-88.5
X156.5Y-91.5
X156.5Y-94.5
X156.5Y-111.0
X156.5Y-114.0
X156.5Y-117.0
X156.5Y-133.5
X156.5Y-136.5
X156.5Y-139.5
T3
X105.0Y-62.5
X105.0Y-67.5
X105.0Y-72.5
X105.0Y-77.5
X105.0Y-82.5
X105.0Y-87.5
X105.0Y-92.5
X105.0Y-97.5
X105.0Y-102.5
X105.0Y-107.5
X105.0Y-112.5
X105.0Y-117.5
X111.0Y-145.0
X116.0Y-145.0
X121.0Y-145.0
X126.0Y-145.0
X129.0Y-55.0
X131.0Y-145.0
X134.0Y-55.0
X136.0Y-145.0
X139.0Y-55.0
X141.0Y-145.0
X144.0Y-55.0
X146.0Y-145.0
X193.0Y-62.0
X193.0Y-67.0
X193.0Y-72.0
X193.0Y-77.0
X193.0Y-82.0
X193.0Y-87.0
X193.0Y-92.0
X193.0Y-97.0
X193.0Y-102.0
X193.0Y-107.0
X193.0Y-112.0
X193.0Y-117.0
X193.0Y-122.0
X193.0Y-127.0
X193.0Y-132.0
X193.0Y-137.0
T4
X103.5Y-53.5
X103.5Y-146.5
X196.5Y-53.5
X196.5Y-146.5
T0
M30
